<svg width="50" height="50" viewBox="0 0 50 50" fill="none" xmlns="http://www.w3.org/2000/svg">
<path d="M20.1389 0C31.2614 0 40.2778 9.01651 40.2778 20.1389C40.2778 24.9497 38.5909 29.3664 35.7764 32.83L49.3898 46.4436C50.2034 47.2573 50.2034 48.5761 49.3898 49.3898C48.6503 50.1295 47.4929 50.1967 46.6773 49.5914L46.4437 49.3898L32.83 35.7764C29.3664 38.5909 24.9498 40.2778 20.1389 40.2778C9.01651 40.2778 0 31.2614 0 20.1389C0 9.01651 9.01651 0 20.1389 0ZM20.1389 4.16667C11.3177 4.16667 4.16667 11.3177 4.16667 20.1389C4.16667 28.96 11.3177 36.1111 20.1389 36.1111C28.96 36.1111 36.1112 28.96 36.1112 20.1389C36.1112 11.3177 28.96 4.16667 20.1389 4.16667Z" fill="#212121"/>
</svg>
