<svg width="24" height="24" viewBox="0 0 24 24" fill="none" xmlns="http://www.w3.org/2000/svg">
<path opacity="0.4" d="M18.04 13.55C17.62 13.96 17.38 14.55 17.44 15.18C17.53 16.26 18.52 17.05 19.6 17.05H21.5V18.24C21.5 20.31 19.81 22 17.74 22H6.26C4.19 22 2.5 20.31 2.5 18.24V11.51C2.5 9.44001 4.19 7.75 6.26 7.75H17.74C19.81 7.75 21.5 9.44001 21.5 11.51V12.95H19.48C18.92 12.95 18.41 13.17 18.04 13.55Z" fill="#fefefe"/>
<path d="M14.85 3.95V7.74999H6.26C4.19 7.74999 2.5 9.44 2.5 11.51V7.84002C2.5 6.65002 3.23 5.58997 4.34 5.16997L12.28 2.16997C13.52 1.70997 14.85 2.62 14.85 3.95Z" fill="white"/>
<path d="M22.5598 13.97V16.03C22.5598 16.58 22.1198 17.03 21.5598 17.05H19.5998C18.5198 17.05 17.5298 16.26 17.4398 15.18C17.3798 14.55 17.6198 13.96 18.0398 13.55C18.4098 13.17 18.9198 12.95 19.4798 12.95H21.5598C22.1198 12.97 22.5598 13.42 22.5598 13.97Z" fill="white"/>
<path d="M14 12.75H7C6.59 12.75 6.25 12.41 6.25 12C6.25 11.59 6.59 11.25 7 11.25H14C14.41 11.25 14.75 11.59 14.75 12C14.75 12.41 14.41 12.75 14 12.75Z" fill="white"/>
</svg>
